<mxfile host="app.diagrams.net" modified="2020-10-05T23:32:35.456Z" agent="5.0 (Windows NT 10.0; Win64; x64) AppleWebKit/537.36 (KHTML, like Gecko) Chrome/85.0.4183.121 Safari/537.36" etag="aiodPYNxhF1Xl7amb3gf" version="13.7.7" type="github">
  <diagram name="Page-1" id="c9db0220-8083-56f3-ca83-edcdcd058819">
    <mxGraphModel dx="1182" dy="732" grid="1" gridSize="10" guides="1" tooltips="1" connect="1" arrows="1" fold="1" page="1" pageScale="1.5" pageWidth="826" pageHeight="1169" background="#ffffff" math="0" shadow="0">
      <root>
        <mxCell id="0" style=";html=1;" />
        <mxCell id="1" style=";html=1;" parent="0" />
        <mxCell id="3d76a8aef4d5c911-1" value="" style="html=1;shadow=0;dashed=0;shape=mxgraph.bootstrap.rect;fillColor=#222222;strokeColor=none;whiteSpace=wrap;rounded=0;fontSize=12;fontColor=#000000;align=center;fontStyle=1;" parent="1" vertex="1">
          <mxGeometry x="38" y="70" width="1150" height="40" as="geometry" />
        </mxCell>
        <mxCell id="3d76a8aef4d5c911-2" value="Bootstrap Budget!" style="html=1;shadow=0;dashed=0;fillColor=none;strokeColor=none;shape=mxgraph.bootstrap.rect;fontSize=14;whiteSpace=wrap;fontStyle=1;fontColor=#FFFFFF;" parent="3d76a8aef4d5c911-1" vertex="1">
          <mxGeometry x="65" width="150" height="40" as="geometry" />
        </mxCell>
        <mxCell id="3d76a8aef4d5c911-7" value="About" style="html=1;shadow=0;dashed=0;fillColor=none;shape=mxgraph.bootstrap.rect;whiteSpace=wrap;strokeColor=#FFFFFF;fontColor=#FFFFFF;fontStyle=1;fontFamily=Verdana;" parent="3d76a8aef4d5c911-1" vertex="1">
          <mxGeometry x="732" width="115" height="40" as="geometry" />
        </mxCell>
        <mxCell id="3d76a8aef4d5c911-8" value="Demo" style="html=1;shadow=0;dashed=0;fillColor=none;shape=mxgraph.bootstrap.rect;whiteSpace=wrap;fontColor=#FFFFFF;strokeColor=#FFFFFF;fontStyle=1;fontFamily=Verdana;" parent="3d76a8aef4d5c911-1" vertex="1">
          <mxGeometry x="847" width="100.625" height="40" as="geometry" />
        </mxCell>
        <mxCell id="Nner8vEzbAquBmYjIafv-1" value="S Logo" style="ellipse;whiteSpace=wrap;html=1;opacity=30;fontColor=#F5F5F5;" parent="3d76a8aef4d5c911-1" vertex="1">
          <mxGeometry x="6" width="60" height="40" as="geometry" />
        </mxCell>
        <mxCell id="Nner8vEzbAquBmYjIafv-2" value="Download" style="html=1;shadow=0;dashed=0;fillColor=none;shape=mxgraph.bootstrap.rect;whiteSpace=wrap;fontColor=#FFFFFF;strokeColor=#FFFFFF;fontStyle=1;fontFamily=Verdana;" parent="3d76a8aef4d5c911-1" vertex="1">
          <mxGeometry x="947.63" width="100.625" height="40" as="geometry" />
        </mxCell>
        <mxCell id="Nner8vEzbAquBmYjIafv-3" value="Source" style="html=1;shadow=0;dashed=0;fillColor=none;shape=mxgraph.bootstrap.rect;whiteSpace=wrap;fontColor=#FFFFFF;strokeColor=#FFFFFF;fontStyle=1;fontFamily=Verdana;" parent="3d76a8aef4d5c911-1" vertex="1">
          <mxGeometry x="1048.26" width="100.625" height="40" as="geometry" />
        </mxCell>
        <mxCell id="LN3bLIRxrWIpqtee3YO_-4" value="" style="shape=image;html=1;verticalAlign=top;verticalLabelPosition=bottom;labelBackgroundColor=#ffffff;imageAspect=0;aspect=fixed;image=https://cdn2.iconfinder.com/data/icons/navigation-set-arrows-part-two/32/Arrow_Drop_Down-128.png;imageBackground=#FFFFFF;" vertex="1" parent="3d76a8aef4d5c911-1">
          <mxGeometry x="815" y="10" width="20" height="20" as="geometry" />
        </mxCell>
        <mxCell id="3d76a8aef4d5c911-24" value="&lt;br&gt;&lt;br&gt;&lt;br&gt;Welcome to Bootstrap Budget!&lt;br&gt;Blah blah blah blah blah." style="html=1;shadow=0;dashed=0;shape=mxgraph.bootstrap.rrect;rSize=5;fontSize=12;align=left;spacing=10;verticalAlign=top;whiteSpace=wrap;rounded=0;fillColor=#E1D5E7;" parent="1" vertex="1">
          <mxGeometry x="38" y="120" width="1152" height="160" as="geometry" />
        </mxCell>
        <mxCell id="LN3bLIRxrWIpqtee3YO_-5" value="&lt;b&gt;&lt;font style=&quot;font-size: 20px&quot;&gt;About 1&lt;/font&gt;&lt;/b&gt;" style="text;html=1;strokeColor=none;fillColor=none;align=center;verticalAlign=middle;whiteSpace=wrap;rounded=0;" vertex="1" parent="1">
          <mxGeometry x="38" y="300" width="92" height="30" as="geometry" />
        </mxCell>
        <mxCell id="LN3bLIRxrWIpqtee3YO_-6" value="&lt;b&gt;&lt;font style=&quot;font-size: 20px&quot;&gt;About 2&lt;/font&gt;&lt;/b&gt;" style="text;html=1;strokeColor=none;fillColor=none;align=center;verticalAlign=middle;whiteSpace=wrap;rounded=0;" vertex="1" parent="1">
          <mxGeometry x="38" y="360" width="92" height="30" as="geometry" />
        </mxCell>
        <mxCell id="LN3bLIRxrWIpqtee3YO_-7" value="&lt;b&gt;&lt;font style=&quot;font-size: 20px&quot;&gt;About 3&lt;/font&gt;&lt;/b&gt;" style="text;html=1;strokeColor=none;fillColor=none;align=center;verticalAlign=middle;whiteSpace=wrap;rounded=0;" vertex="1" parent="1">
          <mxGeometry x="38" y="420" width="92" height="30" as="geometry" />
        </mxCell>
        <mxCell id="LN3bLIRxrWIpqtee3YO_-8" value="&lt;b&gt;&lt;font style=&quot;font-size: 20px&quot;&gt;About x&lt;/font&gt;&lt;/b&gt;" style="text;html=1;strokeColor=none;fillColor=none;align=center;verticalAlign=middle;whiteSpace=wrap;rounded=0;" vertex="1" parent="1">
          <mxGeometry x="38" y="480" width="92" height="30" as="geometry" />
        </mxCell>
        <mxCell id="LN3bLIRxrWIpqtee3YO_-17" value="L Logo" style="ellipse;whiteSpace=wrap;html=1;opacity=30;fontColor=#F5F5F5;fillColor=#000000;" vertex="1" parent="1">
          <mxGeometry x="54" y="130" width="60" height="40" as="geometry" />
        </mxCell>
      </root>
    </mxGraphModel>
  </diagram>
</mxfile>
